<svg width="1200" height="800" xmlns="http://www.w3.org/2000/svg">
  <!-- Business Intelligence Chatbot Hero Interface -->
  <defs>
    <linearGradient id="chatGrad" x1="0%" y1="0%" x2="100%" y2="0%">
      <stop offset="0%" style="stop-color:#6366f1;stop-opacity:1" />
      <stop offset="100%" style="stop-color:#8b5cf6;stop-opacity:1" />
    </linearGradient>
    <filter id="shadow" x="-20%" y="-20%" width="140%" height="140%">
      <feDropShadow dx="2" dy="2" stdDeviation="3" flood-color="#000" flood-opacity="0.1"/>
    </filter>
  </defs>
  
  <!-- Background -->
  <rect width="1200" height="800" fill="#f8f9fa"/>
  
  <!-- Header -->
  <rect width="1200" height="70" fill="url(#chatGrad)"/>
  <text x="20" y="45" font-family="Segoe UI, Arial, sans-serif" font-size="24" font-weight="bold" fill="white">🤖 Business Intelligence AI Assistant</text>
  <rect x="1000" y="20" width="180" height="30" fill="rgba(255,255,255,0.2)" rx="15"/>
  <text x="1020" y="40" font-family="Segoe UI, Arial, sans-serif" font-size="12" fill="white">💬 Ask anything about your data</text>
  
  <!-- Main Layout -->
  <!-- Sidebar with Quick Actions -->
  <rect x="0" y="70" width="280" height="730" fill="white" stroke="#e0e0e0"/>
  <text x="20" y="110" font-family="Segoe UI, Arial, sans-serif" font-size="16" font-weight="bold" fill="#333">Quick Insights</text>
  
  <!-- Quick Action Buttons -->
  <rect x="20" y="130" width="240" height="40" fill="#f0f4ff" stroke="#6366f1" rx="8"/>
  <text x="30" y="155" font-family="Segoe UI, Arial, sans-serif" font-size="13" fill="#6366f1">📊 "Show me this month's revenue"</text>
  
  <rect x="20" y="180" width="240" height="40" fill="#f0f4ff" stroke="#6366f1" rx="8"/>
  <text x="30" y="205" font-family="Segoe UI, Arial, sans-serif" font-size="13" fill="#6366f1">👥 "Top performing customers"</text>
  
  <rect x="20" y="230" width="240" height="40" fill="#f0f4ff" stroke="#6366f1" rx="8"/>
  <text x="30" y="255" font-family="Segoe UI, Arial, sans-serif" font-size="13" fill="#6366f1">📈 "Sales trend analysis"</text>
  
  <rect x="20" y="280" width="240" height="40" fill="#f0f4ff" stroke="#6366f1" rx="8"/>
  <text x="30" y="305" font-family="Segoe UI, Arial, sans-serif" font-size="13" fill="#6366f1">🎯 "Product performance metrics"</text>
  
  <!-- Recent Queries -->
  <text x="20" y="360" font-family="Segoe UI, Arial, sans-serif" font-size="16" font-weight="bold" fill="#333">Recent Queries</text>
  
  <rect x="20" y="380" width="240" height="60" fill="#f9f9f9" stroke="#e0e0e0" rx="8"/>
  <text x="30" y="400" font-family="Segoe UI, Arial, sans-serif" font-size="12" fill="#666">"What's our conversion rate?"</text>
  <text x="30" y="415" font-family="Segoe UI, Arial, sans-serif" font-size="11" fill="#999">2 minutes ago</text>
  <text x="30" y="430" font-family="Segoe UI, Arial, sans-serif" font-size="11" font-weight="bold" fill="#6366f1">Answer: 12.3% (+2.1%)</text>
  
  <rect x="20" y="450" width="240" height="60" fill="#f9f9f9" stroke="#e0e0e0" rx="8"/>
  <text x="30" y="470" font-family="Segoe UI, Arial, sans-serif" font-size="12" fill="#666">"Compare Q3 vs Q4 sales"</text>
  <text x="30" y="485" font-family="Segoe UI, Arial, sans-serif" font-size="11" fill="#999">5 minutes ago</text>
  <text x="30" y="500" font-family="Segoe UI, Arial, sans-serif" font-size="11" font-weight="bold" fill="#6366f1">Chart generated ✓</text>
  
  <!-- Main Chat Area -->
  <rect x="280" y="70" width="920" height="730" fill="white"/>
  
  <!-- Chat Header -->
  <rect x="280" y="70" width="920" height="50" fill="#fafafa" stroke="#e0e0e0"/>
  <text x="300" y="100" font-family="Segoe UI, Arial, sans-serif" font-size="16" font-weight="bold" fill="#333">💬 Conversation with AI Assistant</text>
  <rect x="1100" y="80" width="80" height="30" fill="#10b981" rx="15"/>
  <text x="1120" y="100" font-family="Segoe UI, Arial, sans-serif" font-size="12" font-weight="bold" fill="white">🟢 Online</text>
  
  <!-- Chat Messages -->
  <rect x="300" y="140" width="880" height="500" fill="white"/>
  
  <!-- User Message -->
  <rect x="600" y="160" width="560" height="60" fill="#6366f1" rx="20"/>
  <text x="620" y="180" font-family="Segoe UI, Arial, sans-serif" font-size="14" font-weight="bold" fill="white">You</text>
  <text x="620" y="200" font-family="Segoe UI, Arial, sans-serif" font-size="13" fill="white">Show me the revenue breakdown by product category for the last quarter</text>
  
  <!-- AI Response -->
  <circle cx="320" cy="270" r="20" fill="#10b981"/>
  <text x="308" y="278" font-family="Segoe UI, Arial, sans-serif" font-size="16" fill="white">🤖</text>
  
  <rect x="350" y="240" width="750" height="220" fill="#f8fafc" stroke="#e2e8f0" rx="20"/>
  <text x="370" y="265" font-family="Segoe UI, Arial, sans-serif" font-size="14" font-weight="bold" fill="#1e293b">AI Assistant</text>
  <text x="370" y="285" font-family="Segoe UI, Arial, sans-serif" font-size="13" fill="#475569">Here's your Q4 revenue breakdown by product category:</text>
  
  <!-- Revenue Chart in Chat -->
  <rect x="380" y="300" width="700" height="140" fill="white" stroke="#e2e8f0" rx="8"/>
  
  <!-- Chart Bars -->
  <rect x="400" y="320" width="100" height="80" fill="#3b82f6"/>
  <text x="440" y="340" font-family="Segoe UI, Arial, sans-serif" font-size="12" font-weight="bold" fill="white">$125K</text>
  <text x="430" y="415" font-family="Segoe UI, Arial, sans-serif" font-size="11" fill="#333">Electronics</text>
  
  <rect x="520" y="340" width="100" height="60" fill="#10b981"/>
  <text x="560" y="360" font-family="Segoe UI, Arial, sans-serif" font-size="12" font-weight="bold" fill="white">$89K</text>
  <text x="560" y="415" font-family="Segoe UI, Arial, sans-serif" font-size="11" fill="#333">Clothing</text>
  
  <rect x="640" y="360" width="100" height="40" fill="#f59e0b"/>
  <text x="680" y="380" font-family="Segoe UI, Arial, sans-serif" font-size="12" font-weight="bold" fill="white">$56K</text>
  <text x="680" y="415" font-family="Segoe UI, Arial, sans-serif" font-size="11" fill="#333">Home</text>
  
  <rect x="760" y="370" width="100" height="30" fill="#ef4444"/>
  <text x="800" y="390" font-family="Segoe UI, Arial, sans-serif" font-size="12" font-weight="bold" fill="white">$34K</text>
  <text x="800" y="415" font-family="Segoe UI, Arial, sans-serif" font-size="11" fill="#333">Books</text>
  
  <rect x="880" y="375" width="100" height="25" fill="#8b5cf6"/>
  <text x="920" y="395" font-family="Segoe UI, Arial, sans-serif" font-size="12" font-weight="bold" fill="white">$23K</text>
  <text x="920" y="415" font-family="Segoe UI, Arial, sans-serif" font-size="11" fill="#333">Sports</text>
  
  <!-- Key Insights -->
  <text x="370" y="435" font-family="Segoe UI, Arial, sans-serif" font-size="12" fill="#475569">💡 Key insights: Electronics leads with 38% share. Total Q4 revenue: $327K (+15% vs Q3)</text>
  
  <!-- Follow-up Questions -->
  <rect x="320" y="480" width="180" height="30" fill="#f1f5f9" stroke="#cbd5e1" rx="15"/>
  <text x="330" y="500" font-family="Segoe UI, Arial, sans-serif" font-size="11" fill="#475569">📊 Show monthly trends?</text>
  
  <rect x="520" y="480" width="180" height="30" fill="#f1f5f9" stroke="#cbd5e1" rx="15"/>
  <text x="530" y="500" font-family="Segoe UI, Arial, sans-serif" font-size="11" fill="#475569">🎯 Compare to last year?</text>
  
  <rect x="720" y="480" width="180" height="30" fill="#f1f5f9" stroke="#cbd5e1" rx="15"/>
  <text x="730" y="500" font-family="Segoe UI, Arial, sans-serif" font-size="11" fill="#475569">📈 Forecast next quarter?</text>
  
  <!-- User is typing... -->
  <circle cx="320" cy="570" r="20" fill="#6366f1"/>
  <text x="313" y="578" font-family="Segoe UI, Arial, sans-serif" font-size="16" fill="white">👤</text>
  
  <rect x="350" y="550" width="400" height="40" fill="#f8fafc" stroke="#e2e8f0" rx="20"/>
  <text x="370" y="575" font-family="Segoe UI, Arial, sans-serif" font-size="13" fill="#94a3b8">What's driving the electronics category growth?</text>
  <rect x="680" y="560" width="50" height="20" fill="#6366f1" rx="10"/>
  <text x="690" y="573" font-family="Segoe UI, Arial, sans-serif" font-size="10" font-weight="bold" fill="white">typing...</text>
  
  <!-- Input Area -->
  <rect x="300" y="660" width="780" height="60" fill="white" stroke="#e2e8f0" rx="30"/>
  <text x="330" y="695" font-family="Segoe UI, Arial, sans-serif" font-size="14" fill="#94a3b8">Ask anything about your business data...</text>
  
  <circle cx="1050" cy="690" r="20" fill="#6366f1"/>
  <text x="1040" y="698" font-family="Segoe UI, Arial, sans-serif" font-size="16" fill="white">🚀</text>
  
  <!-- Performance Stats -->
  <rect x="1100" y="660" width="80" height="60" fill="#f8fafc" stroke="#e2e8f0" rx="8"/>
  <text x="1115" y="680" font-family="Segoe UI, Arial, sans-serif" font-size="10" fill="#666">Response</text>
  <text x="1120" y="695" font-family="Segoe UI, Arial, sans-serif" font-size="14" font-weight="bold" fill="#10b981">1.2s</text>
  <text x="1115" y="710" font-family="Segoe UI, Arial, sans-serif" font-size="10" fill="#666">Accuracy</text>
  <text x="1120" y="725" font-family="Segoe UI, Arial, sans-serif" font-size="14" font-weight="bold" fill="#10b981">94%</text>
  
  <!-- Status Bar -->
  <rect x="280" y="750" width="920" height="50" fill="#fafafa" stroke="#e0e0e0"/>
  <text x="300" y="775" font-family="Segoe UI, Arial, sans-serif" font-size="11" fill="#666">🔒 Secure • 📊 Connected to 3 data sources • ⚡ Real-time analysis • 🎯 Business Intelligence Mode</text>
  <text x="1050" y="775" font-family="Segoe UI, Arial, sans-serif" font-size="11" font-weight="bold" fill="#10b981">✓ Live Demo</text>
</svg>